# xmcd
#
# Track frame offsets:
#	150
#	18651
#	30821
#	44961
#	59207
#	72442
#	86556
#	102901
#	118808
#	138359
#	156112
#	171032
#	185208
#	201016
#	215324
#	232787
#	249681
#	273174
#
# Disc length: 3790 seconds
#
# Revision: 1
# Processed by: cddbd v1.5.2PL0 Copyright (c) Steve Scherf et al.
# Submitted via: audiograbber 1.83.01
#
DISCID=080ecc12
DTITLE=Keith Jamieson, Alisha Smith and Caitlyn Jamieson - Memories Within
DYEAR=2019
DGENRE=Country
TTITLE0=Keith Jamieson - Memories Within
TTITLE1=Alisha Smith - Tippy Toes
TTITLE2=Caitlyn Jamieson - Auctioneer
TTITLE3=Keith Jamieson and Caitlyn Jamieson - Cousin Ratsack
TTITLE4=Alisha Smith - Spirit Of The Gibson
TTITLE5=Caitlyn Jamieson - Coat Of Many Colours
TTITLE6=Keith Jamieson - My Farewell Party
TTITLE7=Alisha Smith and Caitlyn Jamieson - Dance Of The Fairy Wren
TTITLE8=Caitlyn Jamieson - Bird On A Wire
TTITLE9=Keith Jamieson - Bluey Francis
TTITLE10=Alisha Smith - Keeroongooloo Station
TTITLE11=Caitlyn Jamieson - Tennessee Flat Top Box
TTITLE12=Keith Jamieson - Room Full Of Old Gold Records
TTITLE13=Keith Jamieson, Alisha Smith and Caitlyn Jamieson - Duelling Bankos
TTITLE14=Caitlyn Jamieson - Johnny Cash Medley
TTITLE15=Keith Jamieson - The Real Australia
TTITLE16=Keith Jamieson - Doug McIntyre Freight Lines
TTITLE17=Alisha Smith and Terry Bennetts - Chicken Pickin'
EXTD=
EXTT0=
EXTT1=
EXTT2=
EXTT3=
EXTT4=
EXTT5=
EXTT6=
EXTT7=
EXTT8=
EXTT9=
EXTT10=
EXTT11=
EXTT12=
EXTT13=
EXTT14=
EXTT15=
EXTT16=
EXTT17=
PLAYORDER=
